<svg xmlns="http://www.w3.org/2000/svg" width="64" height="64" viewBox="0 0 64 64">
<g>
<path d="M 34.00,48.00 L 34.00,34.00 L 45.75,34.03 L 57.50,34.06 L 49.50,37.86 L 41.50,41.66 L 38.18,51.83 L 37.73,53.23 L 36.86,55.78 L 36.45,56.99 L 35.72,59.01 L 35.38,59.93 L 34.87,61.20 L 34.76,61.46 L 34.59,61.79 L 34.43,62.00 L 34.40,62.00 L 34.35,61.71 L 34.32,61.53 L 34.27,60.90 L 34.24,60.54 L 34.19,59.60 L 34.17,59.10 L 34.13,57.89 L 34.09,56.62 L 34.03,53.44 L 34.01,51.76 M 26.00,48.92 L 22.50,41.50 L 12.22,38.00 L 1.94,34.50 L 15.61,34.22 L 17.49,34.18 L 20.95,34.14 L 22.60,34.13 L 25.38,34.14 L 26.02,34.15 L 27.11,34.17 L 27.62,34.18 L 28.44,34.21 L 28.81,34.22 L 29.31,34.27 L 29.67,34.34 L 29.70,34.37 L 29.75,34.64 L 29.77,34.81 L 29.80,35.35 L 29.84,35.94 L 29.87,37.79 L 29.88,38.81 L 29.86,41.32 L 29.79,45.54 L 29.50,56.35 L 26.00,48.92 M 15.05,26.41 L 22.60,22.90 L 26.24,12.20 L 29.87,1.50 L 29.93,15.75 L 30.00,30.00 L 18.75,29.96 L 7.50,29.92 L 15.05,26.41 M 34.00,18.83 L 34.00,17.30 L 34.04,14.54 L 34.07,13.24 L 34.16,11.11 L 34.21,10.15 L 34.34,8.89 L 34.37,8.64 L 34.45,8.34 L 34.56,8.22 L 34.63,8.30 L 35.03,8.97 L 35.26,9.38 L 35.90,10.60 L 36.24,11.26 L 37.04,12.86 L 38.34,15.53 L 41.56,22.27 L 52.03,26.08 L 62.50,29.88 L 48.25,29.94 L 34.00,30.00 L 34.00,18.83 Z" fill="rgba(0,0,0,1)"/>
</g>
</svg>